<svg width="44" height="24" viewBox="0 0 44 24" fill="none" xmlns="http://www.w3.org/2000/svg">
<path d="M9.77778 6H34.2222V18H9.77778V6ZM40.3333 12C40.3333 13.6569 41.9749 15 44 15V21C44 22.6569 42.3584 24 40.3333 24H3.66667C1.6416 24 0 22.6569 0 21V15C2.02507 15 3.66667 13.6569 3.66667 12C3.66667 10.3431 2.02507 9 0 9V3C0 1.34312 1.6416 0 3.66667 0H40.3333C42.3584 0 44 1.34312 44 3V9C41.9749 9 40.3333 10.3431 40.3333 12ZM36.6667 5.5C36.6667 4.67156 35.8459 4 34.8333 4H9.16667C8.15413 4 7.33333 4.67156 7.33333 5.5V18.5C7.33333 19.3284 8.15413 20 9.16667 20H34.8333C35.8459 20 36.6667 19.3284 36.6667 18.5V5.5Z" fill="#1F2041"/>
</svg>
